<svg width="193" height="98" viewBox="0 0 193 98" fill="none" xmlns="http://www.w3.org/2000/svg">
<rect x="0.369732" y="10.7222" width="184.866" height="86.5172" rx="14.4195" stroke="black" stroke-width="0.739464"/>
<rect x="7.76439" y="0.369732" width="184.866" height="86.5172" rx="14.4195" fill="white" stroke="black" stroke-width="0.739464"/>
<path d="M31.4716 19.703C31.4716 20.2551 31.3385 20.7727 31.0723 21.2559C30.8159 21.739 30.4068 22.1284 29.8448 22.4242C29.2926 22.72 28.5926 22.8679 27.7447 22.8679H26.0144V26.8314H23.9439V16.5085H27.7447C28.5433 16.5085 29.2236 16.6465 29.7856 16.9226C30.3476 17.1987 30.7666 17.5783 31.0427 18.0614C31.3286 18.5445 31.4716 19.0917 31.4716 19.703ZM27.656 21.1967C28.2278 21.1967 28.6518 21.0685 28.9278 20.8122C29.2039 20.546 29.3419 20.1762 29.3419 19.703C29.3419 18.6973 28.78 18.1945 27.656 18.1945H26.0144V21.1967H27.656ZM35.0121 19.91C35.2783 19.4762 35.6234 19.1361 36.0474 18.8896C36.4812 18.6431 36.9742 18.5198 37.5263 18.5198V20.6939H36.9791C36.3284 20.6939 35.8354 20.8467 35.5002 21.1523C35.1748 21.458 35.0121 21.9904 35.0121 22.7496V26.8314H32.9416V18.6382H35.0121V19.91ZM46.5374 22.5573C46.5374 22.8531 46.5176 23.1193 46.4782 23.3559H40.4885C40.5378 23.9475 40.7449 24.4109 41.1097 24.7461C41.4745 25.0814 41.9231 25.249 42.4555 25.249C43.2246 25.249 43.7718 24.9187 44.0971 24.2581H46.3303C46.0937 25.0468 45.6401 25.6976 44.9697 26.2103C44.2993 26.7131 43.476 26.9645 42.4999 26.9645C41.7111 26.9645 41.0012 26.792 40.3702 26.4469C39.7491 26.092 39.261 25.5941 38.9061 24.9532C38.561 24.3123 38.3885 23.5729 38.3885 22.7348C38.3885 21.8869 38.561 21.1425 38.9061 20.5016C39.2512 19.8607 39.7343 19.3678 40.3554 19.0227C40.9766 18.6776 41.6914 18.5051 42.4999 18.5051C43.2788 18.5051 43.9739 18.6727 44.5852 19.0079C45.2063 19.3431 45.6845 19.8213 46.0197 20.4425C46.3648 21.0537 46.5374 21.7587 46.5374 22.5573ZM44.3929 21.9658C44.3831 21.4333 44.1908 21.0094 43.8161 20.6939C43.4415 20.3685 42.983 20.2058 42.4407 20.2058C41.928 20.2058 41.4942 20.3636 41.1393 20.6791C40.7942 20.9847 40.5822 21.4136 40.5033 21.9658H44.3929ZM51.5537 25.1898C52.3918 25.1898 52.939 24.8152 53.1953 24.0658H55.4285C55.2214 24.8644 54.8369 25.5152 54.2749 26.018C53.7228 26.5208 53.0277 26.8216 52.1896 26.9202V27.4969C52.7319 27.4969 53.1854 27.635 53.5502 27.911C53.9249 28.1871 54.1122 28.5864 54.1122 29.109C54.1122 29.6414 53.92 30.0506 53.5355 30.3365C53.1608 30.6224 52.6974 30.7654 52.1453 30.7654H50.0452V29.5526H51.8051C52.0417 29.5526 52.2192 29.5181 52.3375 29.4491C52.4657 29.3801 52.5298 29.2569 52.5298 29.0794C52.5298 28.9019 52.4657 28.7787 52.3375 28.7097C52.2192 28.6505 52.0417 28.6209 51.8051 28.6209H50.8882V26.9202C50.2177 26.8216 49.6262 26.5899 49.1135 26.2251C48.6106 25.8504 48.2163 25.3673 47.9303 24.7757C47.6543 24.1743 47.5162 23.494 47.5162 22.7348C47.5162 21.8869 47.6888 21.1474 48.0338 20.5164C48.3789 19.8755 48.8571 19.3826 49.4684 19.0375C50.0797 18.6825 50.7797 18.5051 51.5685 18.5051C52.584 18.5051 53.4221 18.7614 54.0827 19.2741C54.7531 19.7769 55.2017 20.4868 55.4285 21.4038H53.1953C53.077 21.0488 52.8749 20.7727 52.5889 20.5756C52.3129 20.3685 51.9678 20.265 51.5537 20.265C50.9621 20.265 50.4938 20.4819 50.1487 20.9157C49.8036 21.3397 49.6311 21.946 49.6311 22.7348C49.6311 23.5137 49.8036 24.1201 50.1487 24.5539C50.4938 24.9778 50.9621 25.1898 51.5537 25.1898ZM60.5835 26.9645C59.7947 26.9645 59.0848 26.792 58.4538 26.4469C57.8228 26.092 57.3249 25.5941 56.9601 24.9532C56.6052 24.3123 56.4277 23.5729 56.4277 22.7348C56.4277 21.8967 56.6101 21.1573 56.9749 20.5164C57.3496 19.8755 57.8573 19.3826 58.4982 19.0375C59.1391 18.6825 59.8539 18.5051 60.6426 18.5051C61.4314 18.5051 62.1462 18.6825 62.7871 19.0375C63.4279 19.3826 63.9308 19.8755 64.2956 20.5164C64.6702 21.1573 64.8576 21.8967 64.8576 22.7348C64.8576 23.5729 64.6653 24.3123 64.2808 24.9532C63.9061 25.5941 63.3934 26.092 62.7427 26.4469C62.1018 26.792 61.3821 26.9645 60.5835 26.9645ZM60.5835 25.1602C60.9581 25.1602 61.3081 25.0715 61.6335 24.894C61.9687 24.7067 62.2349 24.4306 62.4321 24.0658C62.6293 23.701 62.7279 23.2573 62.7279 22.7348C62.7279 21.9559 62.5209 21.3594 62.1068 20.9453C61.7025 20.5213 61.2046 20.3094 60.613 20.3094C60.0215 20.3094 59.5236 20.5213 59.1193 20.9453C58.725 21.3594 58.5278 21.9559 58.5278 22.7348C58.5278 23.5137 58.72 24.1151 59.1045 24.5391C59.4989 24.9532 59.9919 25.1602 60.5835 25.1602ZM77.5168 22.5573C77.5168 22.8531 77.4971 23.1193 77.4577 23.3559H71.468C71.5173 23.9475 71.7244 24.4109 72.0892 24.7461C72.454 25.0814 72.9026 25.249 73.435 25.249C74.204 25.249 74.7512 24.9187 75.0766 24.2581H77.3098C77.0732 25.0468 76.6196 25.6976 75.9492 26.2103C75.2787 26.7131 74.4555 26.9645 73.4794 26.9645C72.6906 26.9645 71.9807 26.792 71.3497 26.4469C70.7286 26.092 70.2405 25.5941 69.8856 24.9532C69.5405 24.3123 69.368 23.5729 69.368 22.7348C69.368 21.8869 69.5405 21.1425 69.8856 20.5016C70.2307 19.8607 70.7138 19.3678 71.3349 19.0227C71.9561 18.6776 72.6709 18.5051 73.4794 18.5051C74.2583 18.5051 74.9534 18.6727 75.5647 19.0079C76.1858 19.3431 76.664 19.8213 76.9992 20.4425C77.3443 21.0537 77.5168 21.7587 77.5168 22.5573ZM75.3724 21.9658C75.3625 21.4333 75.1703 21.0094 74.7956 20.6939C74.421 20.3685 73.9625 20.2058 73.4202 20.2058C72.9075 20.2058 72.4737 20.3636 72.1188 20.6791C71.7737 20.9847 71.5617 21.4136 71.4828 21.9658H75.3724ZM75.0618 16.4789L71.6603 18.0318V16.5529L75.0618 14.793V16.4789ZM86.1903 26.9645C85.4015 26.9645 84.6916 26.792 84.0606 26.4469C83.4296 26.092 82.9317 25.5941 82.5669 24.9532C82.212 24.3123 82.0345 23.5729 82.0345 22.7348C82.0345 21.8967 82.2169 21.1573 82.5817 20.5164C82.9564 19.8755 83.4641 19.3826 84.105 19.0375C84.7459 18.6825 85.4607 18.5051 86.2494 18.5051C87.0382 18.5051 87.753 18.6825 88.3939 19.0375C89.0348 19.3826 89.5376 19.8755 89.9024 20.5164C90.2771 21.1573 90.4644 21.8967 90.4644 22.7348C90.4644 23.5729 90.2721 24.3123 89.8876 24.9532C89.5129 25.5941 89.0002 26.092 88.3495 26.4469C87.7087 26.792 86.9889 26.9645 86.1903 26.9645ZM86.1903 25.1602C86.5649 25.1602 86.915 25.0715 87.2403 24.894C87.5755 24.7067 87.8418 24.4306 88.0389 24.0658C88.2361 23.701 88.3347 23.2573 88.3347 22.7348C88.3347 21.9559 88.1277 21.3594 87.7136 20.9453C87.3093 20.5213 86.8114 20.3094 86.2199 20.3094C85.6283 20.3094 85.1304 20.5213 84.7261 20.9453C84.3318 21.3594 84.1346 21.9559 84.1346 22.7348C84.1346 23.5137 84.3268 24.1151 84.7114 24.5391C85.1057 24.9532 85.5987 25.1602 86.1903 25.1602ZM94.9748 22.72C94.9748 21.9017 95.1424 21.177 95.4776 20.546C95.8227 19.9051 96.2861 19.4072 96.8678 19.0523C97.4495 18.6973 98.0904 18.5198 98.7904 18.5198C99.3721 18.5198 99.8848 18.6332 100.328 18.86C100.782 19.0769 101.147 19.3579 101.423 19.703V18.6382H103.508V30.7358H101.423V25.7074C101.147 26.0624 100.777 26.3582 100.314 26.5948C99.8503 26.8314 99.3277 26.9497 98.746 26.9497C98.0559 26.9497 97.4199 26.7723 96.8382 26.4173C96.2664 26.0525 95.8128 25.5497 95.4776 24.9088C95.1424 24.2679 94.9748 23.5383 94.9748 22.72ZM101.423 22.7348C101.423 22.232 101.319 21.7981 101.112 21.4333C100.905 21.0685 100.634 20.7925 100.299 20.6051C99.9735 20.4178 99.6235 20.3241 99.2489 20.3241C98.8841 20.3241 98.5341 20.4178 98.1988 20.6051C97.8735 20.7925 97.6073 21.0685 97.4002 21.4333C97.1932 21.7883 97.0896 22.2172 97.0896 22.72C97.0896 23.2228 97.1932 23.6616 97.4002 24.0362C97.6073 24.4011 97.8735 24.6771 98.1988 24.8644C98.5341 25.0518 98.8841 25.1454 99.2489 25.1454C99.6235 25.1454 99.9735 25.0518 100.299 24.8644C100.634 24.6771 100.905 24.4011 101.112 24.0362C101.319 23.6714 101.423 23.2376 101.423 22.7348ZM113.265 18.6382V26.8314H111.18V25.7962C110.914 26.1511 110.564 26.4321 110.13 26.6392C109.706 26.8364 109.242 26.9349 108.74 26.9349C108.099 26.9349 107.532 26.8018 107.039 26.5356C106.546 26.2596 106.156 25.8603 105.871 25.3377C105.594 24.8053 105.456 24.1743 105.456 23.4447V18.6382H107.527V23.1489C107.527 23.7996 107.69 24.3025 108.015 24.6574C108.34 25.0025 108.784 25.175 109.346 25.175C109.918 25.175 110.366 25.0025 110.692 24.6574C111.017 24.3025 111.18 23.7996 111.18 23.1489V18.6382H113.265ZM122.925 22.5573C122.925 22.8531 122.905 23.1193 122.865 23.3559H116.876C116.925 23.9475 117.132 24.4109 117.497 24.7461C117.862 25.0814 118.31 25.249 118.843 25.249C119.612 25.249 120.159 24.9187 120.484 24.2581H122.717C122.481 25.0468 122.027 25.6976 121.357 26.2103C120.686 26.7131 119.863 26.9645 118.887 26.9645C118.098 26.9645 117.388 26.792 116.757 26.4469C116.136 26.092 115.648 25.5941 115.293 24.9532C114.948 24.3123 114.776 23.5729 114.776 22.7348C114.776 21.8869 114.948 21.1425 115.293 20.5016C115.638 19.8607 116.121 19.3678 116.743 19.0227C117.364 18.6776 118.079 18.5051 118.887 18.5051C119.666 18.5051 120.361 18.6727 120.972 19.0079C121.593 19.3431 122.072 19.8213 122.407 20.4425C122.752 21.0537 122.925 21.7587 122.925 22.5573ZM120.78 21.9658C120.77 21.4333 120.578 21.0094 120.203 20.6939C119.829 20.3685 119.37 20.2058 118.828 20.2058C118.315 20.2058 117.881 20.3636 117.526 20.6791C117.181 20.9847 116.969 21.4136 116.891 21.9658H120.78ZM131.376 24.9236L133.447 18.6382H135.65L132.618 26.8314H130.104L127.087 18.6382H129.306L131.376 24.9236ZM140.451 26.9645C139.663 26.9645 138.953 26.792 138.322 26.4469C137.691 26.092 137.193 25.5941 136.828 24.9532C136.473 24.3123 136.296 23.5729 136.296 22.7348C136.296 21.8967 136.478 21.1573 136.843 20.5164C137.217 19.8755 137.725 19.3826 138.366 19.0375C139.007 18.6825 139.722 18.5051 140.51 18.5051C141.299 18.5051 142.014 18.6825 142.655 19.0375C143.296 19.3826 143.799 19.8755 144.163 20.5164C144.538 21.1573 144.725 21.8967 144.725 22.7348C144.725 23.5729 144.533 24.3123 144.149 24.9532C143.774 25.5941 143.261 26.092 142.611 26.4469C141.97 26.792 141.25 26.9645 140.451 26.9645ZM140.451 25.1602C140.826 25.1602 141.176 25.0715 141.501 24.894C141.837 24.7067 142.103 24.4306 142.3 24.0658C142.497 23.701 142.596 23.2573 142.596 22.7348C142.596 21.9559 142.389 21.3594 141.975 20.9453C141.57 20.5213 141.072 20.3094 140.481 20.3094C139.889 20.3094 139.391 20.5213 138.987 20.9453C138.593 21.3594 138.396 21.9559 138.396 22.7348C138.396 23.5137 138.588 24.1151 138.972 24.5391C139.367 24.9532 139.86 25.1602 140.451 25.1602ZM145.712 22.7348C145.712 21.8869 145.884 21.1474 146.229 20.5164C146.574 19.8755 147.053 19.3826 147.664 19.0375C148.275 18.6825 148.975 18.5051 149.764 18.5051C150.78 18.5051 151.618 18.7614 152.278 19.2741C152.949 19.7769 153.397 20.4868 153.624 21.4038H151.391C151.273 21.0488 151.07 20.7727 150.785 20.5756C150.508 20.3685 150.163 20.265 149.749 20.265C149.158 20.265 148.689 20.4819 148.344 20.9157C147.999 21.3397 147.827 21.946 147.827 22.7348C147.827 23.5137 147.999 24.1201 148.344 24.5539C148.689 24.9778 149.158 25.1898 149.749 25.1898C150.587 25.1898 151.135 24.8152 151.391 24.0658H153.624C153.397 24.9532 152.949 25.6581 152.278 26.1807C151.608 26.7032 150.77 26.9645 149.764 26.9645C148.975 26.9645 148.275 26.792 147.664 26.4469C147.053 26.092 146.574 25.599 146.229 24.968C145.884 24.3271 145.712 23.5827 145.712 22.7348ZM162.757 22.5573C162.757 22.8531 162.738 23.1193 162.698 23.3559H156.709C156.758 23.9475 156.965 24.4109 157.33 24.7461C157.694 25.0814 158.143 25.249 158.676 25.249C159.445 25.249 159.992 24.9187 160.317 24.2581H162.55C162.314 25.0468 161.86 25.6976 161.19 26.2103C160.519 26.7131 159.696 26.9645 158.72 26.9645C157.931 26.9645 157.221 26.792 156.59 26.4469C155.969 26.092 155.481 25.5941 155.126 24.9532C154.781 24.3123 154.608 23.5729 154.608 22.7348C154.608 21.8869 154.781 21.1425 155.126 20.5016C155.471 19.8607 155.954 19.3678 156.575 19.0227C157.197 18.6776 157.911 18.5051 158.72 18.5051C159.499 18.5051 160.194 18.6727 160.805 19.0079C161.426 19.3431 161.904 19.8213 162.24 20.4425C162.585 21.0537 162.757 21.7587 162.757 22.5573ZM160.613 21.9658C160.603 21.4333 160.411 21.0094 160.036 20.6939C159.661 20.3685 159.203 20.2058 158.661 20.2058C158.148 20.2058 157.714 20.3636 157.359 20.6791C157.014 20.9847 156.802 21.4136 156.723 21.9658H160.613ZM158.69 16.7895L156.487 18.0318V16.5233L158.69 15.3254L160.879 16.5233V18.0318L158.69 16.7895ZM26.0144 41.8213C26.2806 41.4466 26.6454 41.1361 27.1088 40.8896C27.582 40.6332 28.1194 40.5051 28.7208 40.5051C29.4208 40.5051 30.0518 40.6776 30.6138 41.0227C31.1857 41.3678 31.6343 41.8607 31.9596 42.5016C32.2949 43.1326 32.4625 43.8672 32.4625 44.7052C32.4625 45.5433 32.2949 46.2877 31.9596 46.9384C31.6343 47.5793 31.1857 48.0772 30.6138 48.4321C30.0518 48.7871 29.4208 48.9645 28.7208 48.9645C28.1194 48.9645 27.587 48.8413 27.1236 48.5948C26.67 48.3483 26.3003 48.0377 26.0144 47.6631V52.7358H23.9439V40.6382H26.0144V41.8213ZM30.3476 44.7052C30.3476 44.2122 30.2441 43.7883 30.037 43.4333C29.8399 43.0685 29.5736 42.7925 29.2384 42.6051C28.9131 42.4178 28.5581 42.3241 28.1736 42.3241C27.7989 42.3241 27.444 42.4227 27.1088 42.6199C26.7834 42.8073 26.5172 43.0833 26.3101 43.4481C26.113 43.8129 26.0144 44.2418 26.0144 44.7348C26.0144 45.2278 26.113 45.6567 26.3101 46.0215C26.5172 46.3863 26.7834 46.6673 27.1088 46.8644C27.444 47.0518 27.7989 47.1454 28.1736 47.1454C28.5581 47.1454 28.9131 47.0468 29.2384 46.8497C29.5736 46.6525 29.8399 46.3715 30.037 46.0067C30.2441 45.6419 30.3476 45.208 30.3476 44.7052ZM33.4346 44.7052C33.4346 43.877 33.5973 43.1425 33.9227 42.5016C34.2579 41.8607 34.7065 41.3678 35.2685 41.0227C35.8404 40.6776 36.4763 40.5051 37.1763 40.5051C37.7876 40.5051 38.32 40.6283 38.7736 40.8748C39.237 41.1213 39.6067 41.4319 39.8828 41.8065V40.6382H41.9681V48.8314H39.8828V47.6335C39.6166 48.018 39.2468 48.3384 38.7736 48.5948C38.3102 48.8413 37.7728 48.9645 37.1615 48.9645C36.4714 48.9645 35.8404 48.7871 35.2685 48.4321C34.7065 48.0772 34.2579 47.5793 33.9227 46.9384C33.5973 46.2877 33.4346 45.5433 33.4346 44.7052ZM39.8828 44.7348C39.8828 44.232 39.7842 43.8031 39.587 43.4481C39.3898 43.0833 39.1236 42.8073 38.7884 42.6199C38.4531 42.4227 38.0933 42.3241 37.7087 42.3241C37.3242 42.3241 36.9693 42.4178 36.6439 42.6051C36.3186 42.7925 36.0523 43.0685 35.8453 43.4333C35.6481 43.7883 35.5495 44.2122 35.5495 44.7052C35.5495 45.1982 35.6481 45.632 35.8453 46.0067C36.0523 46.3715 36.3186 46.6525 36.6439 46.8497C36.9791 47.0468 37.3341 47.1454 37.7087 47.1454C38.0933 47.1454 38.4531 47.0518 38.7884 46.8644C39.1236 46.6673 39.3898 46.3912 39.587 46.0362C39.7842 45.6714 39.8828 45.2376 39.8828 44.7348ZM47.1995 40.5051C47.8108 40.5051 48.3482 40.6283 48.8116 40.8748C49.275 41.1114 49.6398 41.422 49.906 41.8065V40.6382H51.9913V48.8906C51.9913 49.6498 51.8384 50.3251 51.5328 50.9167C51.2271 51.5181 50.7687 51.9914 50.1574 52.3365C49.5461 52.6914 48.8066 52.8689 47.939 52.8689C46.7756 52.8689 45.8192 52.5978 45.0699 52.0555C44.3304 51.5132 43.9114 50.7737 43.8128 49.8371H45.8685C45.9769 50.2118 46.2086 50.5075 46.5636 50.7244C46.9284 50.9512 47.3671 51.0646 47.8798 51.0646C48.4813 51.0646 48.9693 50.8822 49.344 50.5174C49.7186 50.1625 49.906 49.6202 49.906 48.8906V47.6187C49.6398 48.0032 49.27 48.3237 48.7968 48.58C48.3334 48.8364 47.801 48.9645 47.1995 48.9645C46.5094 48.9645 45.8784 48.7871 45.3065 48.4321C44.7346 48.0772 44.2811 47.5793 43.9459 46.9384C43.6205 46.2877 43.4578 45.5433 43.4578 44.7052C43.4578 43.877 43.6205 43.1425 43.9459 42.5016C44.2811 41.8607 44.7297 41.3678 45.2917 41.0227C45.8636 40.6776 46.4995 40.5051 47.1995 40.5051ZM49.906 44.7348C49.906 44.232 49.8074 43.8031 49.6102 43.4481C49.413 43.0833 49.1468 42.8073 48.8116 42.6199C48.4763 42.4227 48.1165 42.3241 47.7319 42.3241C47.3474 42.3241 46.9925 42.4178 46.6671 42.6051C46.3417 42.7925 46.0755 43.0685 45.8685 43.4333C45.6713 43.7883 45.5727 44.2122 45.5727 44.7052C45.5727 45.1982 45.6713 45.632 45.8685 46.0067C46.0755 46.3715 46.3417 46.6525 46.6671 46.8497C47.0023 47.0468 47.3573 47.1454 47.7319 47.1454C48.1165 47.1454 48.4763 47.0518 48.8116 46.8644C49.1468 46.6673 49.413 46.3912 49.6102 46.0362C49.8074 45.6714 49.906 45.2376 49.906 44.7348ZM53.481 44.7052C53.481 43.877 53.6437 43.1425 53.9691 42.5016C54.3043 41.8607 54.7529 41.3678 55.3149 41.0227C55.8868 40.6776 56.5227 40.5051 57.2227 40.5051C57.834 40.5051 58.3664 40.6283 58.82 40.8748C59.2834 41.1213 59.6531 41.4319 59.9292 41.8065V40.6382H62.0144V48.8314H59.9292V47.6335C59.663 48.018 59.2932 48.3384 58.82 48.5948C58.3566 48.8413 57.8192 48.9645 57.2079 48.9645C56.5178 48.9645 55.8868 48.7871 55.3149 48.4321C54.7529 48.0772 54.3043 47.5793 53.9691 46.9384C53.6437 46.2877 53.481 45.5433 53.481 44.7052ZM59.9292 44.7348C59.9292 44.232 59.8306 43.8031 59.6334 43.4481C59.4362 43.0833 59.17 42.8073 58.8348 42.6199C58.4995 42.4227 58.1397 42.3241 57.7551 42.3241C57.3706 42.3241 57.0157 42.4178 56.6903 42.6051C56.3649 42.7925 56.0987 43.0685 55.8917 43.4333C55.6945 43.7883 55.5959 44.2122 55.5959 44.7052C55.5959 45.1982 55.6945 45.632 55.8917 46.0067C56.0987 46.3715 56.3649 46.6525 56.6903 46.8497C57.0255 47.0468 57.3805 47.1454 57.7551 47.1454C58.1397 47.1454 58.4995 47.0518 58.8348 46.8644C59.17 46.6673 59.4362 46.3912 59.6334 46.0362C59.8306 45.6714 59.9292 45.2376 59.9292 44.7348ZM66.2994 46.6574L64.5691 50.8132H63.238L64.1993 46.6574H66.2994ZM74.7321 46.9236L76.8026 40.6382H79.0062L75.9744 48.8314H73.4602L70.4432 40.6382H72.6616L74.7321 46.9236ZM79.6367 44.7052C79.6367 43.877 79.7994 43.1425 80.1247 42.5016C80.4599 41.8607 80.9086 41.3678 81.4705 41.0227C82.0424 40.6776 82.6783 40.5051 83.3784 40.5051C83.9896 40.5051 84.5221 40.6283 84.9756 40.8748C85.439 41.1213 85.8087 41.4319 86.0848 41.8065V40.6382H88.1701V48.8314H86.0848V47.6335C85.8186 48.018 85.4489 48.3384 84.9756 48.5948C84.5122 48.8413 83.9749 48.9645 83.3636 48.9645C82.6734 48.9645 82.0424 48.7871 81.4705 48.4321C80.9086 48.0772 80.4599 47.5793 80.1247 46.9384C79.7994 46.2877 79.6367 45.5433 79.6367 44.7052ZM86.0848 44.7348C86.0848 44.232 85.9862 43.8031 85.789 43.4481C85.5918 43.0833 85.3256 42.8073 84.9904 42.6199C84.6552 42.4227 84.2953 42.3241 83.9108 42.3241C83.5263 42.3241 83.1713 42.4178 82.8459 42.6051C82.5206 42.7925 82.2544 43.0685 82.0473 43.4333C81.8501 43.7883 81.7515 44.2122 81.7515 44.7052C81.7515 45.1982 81.8501 45.632 82.0473 46.0067C82.2544 46.3715 82.5206 46.6525 82.8459 46.8497C83.1812 47.0468 83.5361 47.1454 83.9108 47.1454C84.2953 47.1454 84.6552 47.0518 84.9904 46.8644C85.3256 46.6673 85.5918 46.3912 85.789 46.0362C85.9862 45.6714 86.0848 45.2376 86.0848 44.7348ZM92.2628 37.8874V48.8314H90.1923V37.8874H92.2628ZM97.9466 48.9645C97.1578 48.9645 96.448 48.792 95.8169 48.4469C95.1859 48.092 94.688 47.5941 94.3232 46.9532C93.9683 46.3123 93.7908 45.5729 93.7908 44.7348C93.7908 43.8967 93.9732 43.1573 94.338 42.5164C94.7127 41.8755 95.2204 41.3826 95.8613 41.0375C96.5022 40.6825 97.217 40.5051 98.0058 40.5051C98.7945 40.5051 99.5093 40.6825 100.15 41.0375C100.791 41.3826 101.294 41.8755 101.659 42.5164C102.033 43.1573 102.221 43.8967 102.221 44.7348C102.221 45.5729 102.028 46.3123 101.644 46.9532C101.269 47.5941 100.757 48.092 100.106 48.4469C99.465 48.792 98.7452 48.9645 97.9466 48.9645ZM97.9466 47.1602C98.3213 47.1602 98.6713 47.0715 98.9966 46.894C99.3319 46.7067 99.5981 46.4306 99.7953 46.0658C99.9924 45.701 100.091 45.2573 100.091 44.7348C100.091 43.9559 99.884 43.3594 99.4699 42.9453C99.0657 42.5213 98.5677 42.3094 97.9762 42.3094C97.3846 42.3094 96.8867 42.5213 96.4825 42.9453C96.0881 43.3594 95.8909 43.9559 95.8909 44.7348C95.8909 45.5137 96.0832 46.1151 96.4677 46.5391C96.8621 46.9532 97.355 47.1602 97.9466 47.1602ZM105.81 41.91C106.076 41.4762 106.421 41.1361 106.845 40.8896C107.279 40.6431 107.772 40.5198 108.324 40.5198V42.6939H107.777C107.126 42.6939 106.633 42.8467 106.298 43.1523C105.973 43.458 105.81 43.9904 105.81 44.7496V48.8314H103.739V40.6382H105.81V41.91ZM120.859 44.5573C120.859 44.8531 120.84 45.1193 120.8 45.3559H114.81C114.86 45.9475 115.067 46.4109 115.432 46.7461C115.796 47.0814 116.245 47.249 116.777 47.249C117.546 47.249 118.094 46.9187 118.419 46.2581H120.652C120.416 47.0468 119.962 47.6976 119.292 48.2103C118.621 48.7131 117.798 48.9645 116.822 48.9645C116.033 48.9645 115.323 48.792 114.692 48.4469C114.071 48.092 113.583 47.5941 113.228 46.9532C112.883 46.3123 112.71 45.5729 112.71 44.7348C112.71 43.8869 112.883 43.1425 113.228 42.5016C113.573 41.8607 114.056 41.3678 114.677 41.0227C115.298 40.6776 116.013 40.5051 116.822 40.5051C117.601 40.5051 118.296 40.6727 118.907 41.0079C119.528 41.3431 120.006 41.8213 120.342 42.4425C120.687 43.0537 120.859 43.7587 120.859 44.5573ZM118.715 43.9658C118.705 43.4333 118.513 43.0094 118.138 42.6939C117.763 42.3685 117.305 42.2058 116.763 42.2058C116.25 42.2058 115.816 42.3636 115.461 42.6791C115.116 42.9847 114.904 43.4136 114.825 43.9658H118.715ZM118.404 38.4789L115.003 40.0318V38.5529L118.404 36.793V38.4789ZM129.533 48.9645C128.744 48.9645 128.034 48.792 127.403 48.4469C126.772 48.092 126.274 47.5941 125.909 46.9532C125.554 46.3123 125.377 45.5729 125.377 44.7348C125.377 43.8967 125.559 43.1573 125.924 42.5164C126.299 41.8755 126.807 41.3826 127.447 41.0375C128.088 40.6825 128.803 40.5051 129.592 40.5051C130.381 40.5051 131.095 40.6825 131.736 41.0375C132.377 41.3826 132.88 41.8755 133.245 42.5164C133.619 43.1573 133.807 43.8967 133.807 44.7348C133.807 45.5729 133.615 46.3123 133.23 46.9532C132.855 47.5941 132.343 48.092 131.692 48.4469C131.051 48.792 130.331 48.9645 129.533 48.9645ZM129.533 47.1602C129.907 47.1602 130.257 47.0715 130.583 46.894C130.918 46.7067 131.184 46.4306 131.381 46.0658C131.579 45.701 131.677 45.2573 131.677 44.7348C131.677 43.9559 131.47 43.3594 131.056 42.9453C130.652 42.5213 130.154 42.3094 129.562 42.3094C128.971 42.3094 128.473 42.5213 128.069 42.9453C127.674 43.3594 127.477 43.9559 127.477 44.7348C127.477 45.5137 127.669 46.1151 128.054 46.5391C128.448 46.9532 128.941 47.1602 129.533 47.1602ZM138.317 44.72C138.317 43.9017 138.485 43.177 138.82 42.546C139.165 41.9051 139.628 41.4072 140.21 41.0523C140.792 40.6973 141.433 40.5198 142.133 40.5198C142.714 40.5198 143.227 40.6332 143.671 40.86C144.124 41.0769 144.489 41.3579 144.765 41.703V40.6382H146.851V52.7358H144.765V47.7074C144.489 48.0624 144.119 48.3582 143.656 48.5948C143.193 48.8314 142.67 48.9497 142.088 48.9497C141.398 48.9497 140.762 48.7723 140.181 48.4173C139.609 48.0525 139.155 47.5497 138.82 46.9088C138.485 46.2679 138.317 45.5383 138.317 44.72ZM144.765 44.7348C144.765 44.232 144.662 43.7981 144.455 43.4333C144.248 43.0685 143.977 42.7925 143.641 42.6051C143.316 42.4178 142.966 42.3241 142.591 42.3241C142.226 42.3241 141.876 42.4178 141.541 42.6051C141.216 42.7925 140.95 43.0685 140.743 43.4333C140.536 43.7883 140.432 44.2172 140.432 44.72C140.432 45.2228 140.536 45.6616 140.743 46.0362C140.95 46.4011 141.216 46.6771 141.541 46.8644C141.876 47.0518 142.226 47.1454 142.591 47.1454C142.966 47.1454 143.316 47.0518 143.641 46.8644C143.977 46.6771 144.248 46.4011 144.455 46.0362C144.662 45.6714 144.765 45.2376 144.765 44.7348ZM156.608 40.6382V48.8314H154.522V47.7962C154.256 48.1511 153.906 48.4321 153.472 48.6392C153.048 48.8364 152.585 48.9349 152.082 48.9349C151.441 48.9349 150.874 48.8018 150.381 48.5356C149.888 48.2596 149.499 47.8603 149.213 47.3377C148.937 46.8053 148.799 46.1743 148.799 45.4447V40.6382H150.869V45.1489C150.869 45.7996 151.032 46.3025 151.357 46.6574C151.683 47.0025 152.126 47.175 152.688 47.175C153.26 47.175 153.709 47.0025 154.034 46.6574C154.36 46.3025 154.522 45.7996 154.522 45.1489V40.6382H156.608ZM166.267 44.5573C166.267 44.8531 166.247 45.1193 166.208 45.3559H160.218C160.267 45.9475 160.474 46.4109 160.839 46.7461C161.204 47.0814 161.653 47.249 162.185 47.249C162.954 47.249 163.501 46.9187 163.827 46.2581H166.06C165.823 47.0468 165.37 47.6976 164.699 48.2103C164.029 48.7131 163.206 48.9645 162.229 48.9645C161.441 48.9645 160.731 48.792 160.1 48.4469C159.479 48.092 158.991 47.5941 158.636 46.9532C158.291 46.3123 158.118 45.5729 158.118 44.7348C158.118 43.8869 158.291 43.1425 158.636 42.5016C158.981 41.8607 159.464 41.3678 160.085 41.0227C160.706 40.6776 161.421 40.5051 162.229 40.5051C163.008 40.5051 163.703 40.6727 164.315 41.0079C164.936 41.3431 165.414 41.8213 165.749 42.4425C166.094 43.0537 166.267 43.7587 166.267 44.5573ZM164.122 43.9658C164.113 43.4333 163.92 43.0094 163.546 42.6939C163.171 42.3685 162.713 42.2058 162.17 42.2058C161.658 42.2058 161.224 42.3636 160.869 42.6791C160.524 42.9847 160.312 43.4136 160.233 43.9658H164.122ZM27.3602 68.9236L29.4307 62.6382H31.6343L28.6025 70.8314H26.0883L23.0713 62.6382H25.2897L27.3602 68.9236ZM36.4354 70.9645C35.6466 70.9645 34.9367 70.792 34.3057 70.4469C33.6747 70.092 33.1768 69.5941 32.812 68.9532C32.4571 68.3123 32.2796 67.5729 32.2796 66.7348C32.2796 65.8967 32.462 65.1573 32.8268 64.5164C33.2014 63.8755 33.7092 63.3826 34.3501 63.0375C34.9909 62.6825 35.7058 62.5051 36.4945 62.5051C37.2833 62.5051 37.9981 62.6825 38.639 63.0375C39.2798 63.3826 39.7827 63.8755 40.1475 64.5164C40.5221 65.1573 40.7095 65.8967 40.7095 66.7348C40.7095 67.5729 40.5172 68.3123 40.1327 68.9532C39.758 69.5941 39.2453 70.092 38.5946 70.4469C37.9537 70.792 37.234 70.9645 36.4354 70.9645ZM36.4354 69.1602C36.81 69.1602 37.16 69.0715 37.4854 68.894C37.8206 68.7067 38.0868 68.4306 38.284 68.0658C38.4812 67.701 38.5798 67.2573 38.5798 66.7348C38.5798 65.9559 38.3728 65.3594 37.9587 64.9453C37.5544 64.5213 37.0565 64.3094 36.4649 64.3094C35.8734 64.3094 35.3755 64.5213 34.9712 64.9453C34.5768 65.3594 34.3797 65.9559 34.3797 66.7348C34.3797 67.5137 34.5719 68.1151 34.9564 68.5391C35.3508 68.9532 35.8438 69.1602 36.4354 69.1602ZM41.6958 66.7348C41.6958 65.8869 41.8684 65.1474 42.2135 64.5164C42.5585 63.8755 43.0367 63.3826 43.648 63.0375C44.2593 62.6825 44.9593 62.5051 45.7481 62.5051C46.7636 62.5051 47.6017 62.7614 48.2623 63.2741C48.9327 63.7769 49.3813 64.4868 49.6081 65.4038H47.3749C47.2566 65.0488 47.0545 64.7727 46.7686 64.5756C46.4925 64.3685 46.1474 64.265 45.7333 64.265C45.1417 64.265 44.6734 64.4819 44.3283 64.9157C43.9832 65.3397 43.8107 65.946 43.8107 66.7348C43.8107 67.5137 43.9832 68.1201 44.3283 68.5539C44.6734 68.9778 45.1417 69.1898 45.7333 69.1898C46.5714 69.1898 47.1186 68.8152 47.3749 68.0658H49.6081C49.3813 68.9532 48.9327 69.6581 48.2623 70.1807C47.5918 70.7032 46.7538 70.9645 45.7481 70.9645C44.9593 70.9645 44.2593 70.792 43.648 70.4469C43.0367 70.092 42.5585 69.599 42.2135 68.968C41.8684 68.3271 41.6958 67.5827 41.6958 66.7348ZM58.7414 66.5573C58.7414 66.8531 58.7217 67.1193 58.6822 67.3559H52.6926C52.7419 67.9475 52.9489 68.4109 53.3137 68.7461C53.6785 69.0814 54.1271 69.249 54.6596 69.249C55.4286 69.249 55.9758 68.9187 56.3012 68.2581H58.5344C58.2977 69.0468 57.8442 69.6976 57.1737 70.2103C56.5033 70.7131 55.68 70.9645 54.7039 70.9645C53.9152 70.9645 53.2053 70.792 52.5743 70.4469C51.9531 70.092 51.4651 69.5941 51.1101 68.9532C50.7651 68.3123 50.5925 67.5729 50.5925 66.7348C50.5925 65.8869 50.7651 65.1425 51.1101 64.5016C51.4552 63.8607 51.9383 63.3678 52.5595 63.0227C53.1806 62.6776 53.8954 62.5051 54.7039 62.5051C55.4828 62.5051 56.1779 62.6727 56.7892 63.0079C57.4104 63.3431 57.8886 63.8213 58.2238 64.4425C58.5689 65.0537 58.7414 65.7587 58.7414 66.5573ZM56.597 65.9658C56.5871 65.4333 56.3948 65.0094 56.0202 64.6939C55.6455 64.3685 55.187 64.2058 54.6448 64.2058C54.1321 64.2058 53.6983 64.3636 53.3433 64.6791C52.9982 64.9847 52.7863 65.4136 52.7074 65.9658H56.597ZM54.6744 60.7895L52.4707 62.0318V60.5233L54.6744 59.3254L56.8632 60.5233V62.0318L54.6744 60.7895ZM65.8472 59.8874V70.8314H63.7767V59.8874H65.8472ZM75.5093 66.5573C75.5093 66.8531 75.4896 67.1193 75.4502 67.3559H69.4605C69.5098 67.9475 69.7168 68.4109 70.0817 68.7461C70.4465 69.0814 70.8951 69.249 71.4275 69.249C72.1965 69.249 72.7437 68.9187 73.0691 68.2581H75.3023C75.0656 69.0468 74.6121 69.6976 73.9417 70.2103C73.2712 70.7131 72.4479 70.9645 71.4718 70.9645C70.6831 70.9645 69.9732 70.792 69.3422 70.4469C68.721 70.092 68.233 69.5941 67.878 68.9532C67.533 68.3123 67.3604 67.5729 67.3604 66.7348C67.3604 65.8869 67.533 65.1425 67.878 64.5016C68.2231 63.8607 68.7062 63.3678 69.3274 63.0227C69.9485 62.6776 70.6634 62.5051 71.4718 62.5051C72.2507 62.5051 72.9458 62.6727 73.5571 63.0079C74.1783 63.3431 74.6565 63.8213 74.9917 64.4425C75.3368 65.0537 75.5093 65.7587 75.5093 66.5573ZM73.3649 65.9658C73.355 65.4333 73.1627 65.0094 72.7881 64.6939C72.4134 64.3685 71.955 64.2058 71.4127 64.2058C70.9 64.2058 70.4662 64.3636 70.1112 64.6791C69.7661 64.9847 69.5542 65.4136 69.4753 65.9658H73.3649ZM80.4369 68.9236L82.5074 62.6382H84.711L81.6792 70.8314H79.165L76.148 62.6382H78.3664L80.4369 68.9236ZM85.3415 66.7052C85.3415 65.877 85.5042 65.1425 85.8296 64.5016C86.1648 63.8607 86.6134 63.3678 87.1754 63.0227C87.7472 62.6776 88.3832 62.5051 89.0832 62.5051C89.6945 62.5051 90.2269 62.6283 90.6804 62.8748C91.1438 63.1213 91.5136 63.4319 91.7896 63.8065V62.6382H93.8749V70.8314H91.7896V69.6335C91.5234 70.018 91.1537 70.3384 90.6804 70.5948C90.217 70.8413 89.6797 70.9645 89.0684 70.9645C88.3783 70.9645 87.7472 70.7871 87.1754 70.4321C86.6134 70.0772 86.1648 69.5793 85.8296 68.9384C85.5042 68.2877 85.3415 67.5433 85.3415 66.7052ZM91.7896 66.7348C91.7896 66.232 91.691 65.8031 91.4939 65.4481C91.2967 65.0833 91.0305 64.8073 90.6952 64.6199C90.36 64.4227 90.0001 64.3241 89.6156 64.3241C89.2311 64.3241 88.8762 64.4178 88.5508 64.6051C88.2254 64.7925 87.9592 65.0685 87.7522 65.4333C87.555 65.7883 87.4564 66.2122 87.4564 66.7052C87.4564 67.1982 87.555 67.632 87.7522 68.0067C87.9592 68.3715 88.2254 68.6525 88.5508 68.8497C88.886 69.0468 89.241 69.1454 89.6156 69.1454C90.0001 69.1454 90.36 69.0518 90.6952 68.8644C91.0305 68.6673 91.2967 68.3912 91.4939 68.0362C91.691 67.6714 91.7896 67.2376 91.7896 66.7348ZM98.574 60.331L98.3374 67.4743H96.5922L96.3408 60.331H98.574ZM97.5092 70.9349C97.1345 70.9349 96.8239 70.8216 96.5774 70.5948C96.3408 70.3582 96.2225 70.0673 96.2225 69.7222C96.2225 69.3771 96.3408 69.0912 96.5774 68.8644C96.8239 68.6278 97.1345 68.5095 97.5092 68.5095C97.874 68.5095 98.1747 68.6278 98.4113 68.8644C98.6479 69.0912 98.7662 69.3771 98.7662 69.7222C98.7662 70.0673 98.6479 70.3582 98.4113 70.5948C98.1747 70.8216 97.874 70.9349 97.5092 70.9349Z" fill="black"/>
</svg>
